<?xml version="1.0" encoding="utf-8"?>
<!-- Generator: Adobe Illustrator 26.5.0, SVG Export Plug-In . SVG Version: 6.00 Build 0)  -->
<svg version="1.1" id="Слой_1" xmlns="http://www.w3.org/2000/svg" xmlns:xlink="http://www.w3.org/1999/xlink" x="0px" y="0px"
	 viewBox="0 0 250 80" style="enable-background:new 0 0 250 80;" xml:space="preserve">
<style type="text/css">
	.st0{fill:#040505;}
	.st1{fill-rule:evenodd;clip-rule:evenodd;fill:#040505;}
	.st2{fill-rule:evenodd;clip-rule:evenodd;fill:#D7A33B;}
</style>
<g>
	<path class="st0" d="M78.7,36.5h-5.7L85.7,6.3h6l13.1,30.2h-6l-3.4-8.2h-10l1.9-4.9h6.1l-4.8-11.4L78.7,36.5z"/>
	<path class="st0" d="M132.6,35.1c-2.4,1.1-5.5,1.6-9.1,1.6c-10.7,0-16-5.2-16-15.7c0-9.9,5.4-14.9,16.3-14.9c3.3,0,6.3,0.5,8.9,1.5
		v5.1c-2.6-1.1-5.4-1.7-8.4-1.7c-7.3,0-10.9,3.3-10.9,10c0,7.3,3.4,10.9,10.3,10.9c1,0,2.2-0.2,3.5-0.5v-8.8h5.6V35.1z"/>
	<path class="st0" d="M158.6,6.3v4.8h-15.1v7.6h14.4v5h-14.5v7.9h15.5v4.9h-21V6.3H158.6z"/>
	<path class="st0" d="M164.1,36.5V6.3h5.6l15.9,22v-22h5.4v30.2h-5.6L169.4,14v22.5H164.1z"/>
	<path class="st0" d="M217.1,6.3v4.9h-8.7v25.4h-5.6V11.2h-8.7V6.3H217.1z"/>
	<path class="st0" d="M99.6,71.6c-2.6,1-5.6,1.5-8.9,1.5c-10.8,0-16.3-5.2-16.3-15.7c0-9.9,5.4-14.9,16.3-14.9
		c3.3,0,6.3,0.5,8.9,1.5V49c-2.6-1.1-5.4-1.7-8.4-1.7c-7.3,0-10.9,3.3-10.9,10c0,7.3,3.6,10.9,10.9,10.9c3,0,5.8-0.6,8.4-1.7V71.6z"
		/>
	<path class="st0" d="M109.7,57.7c0,7,3.1,10.5,9.4,10.5c6.1,0,9.1-3.5,9.1-10.5c0-6.9-3-10.4-9.1-10.4
		C112.8,47.3,109.7,50.7,109.7,57.7z M103.9,57.8c0-10.2,5.1-15.4,15.2-15.4c10,0,14.9,5.1,14.9,15.4c0,10.2-5,15.3-14.9,15.3
		C109.4,73.1,104.3,68,103.9,57.8z"/>
	<path class="st0" d="M139.3,61V42.6h5.6V61c0,4.8,2.5,7.2,7.4,7.2c4.9,0,7.4-2.4,7.4-7.2V42.6h5.6V61c0,8.1-4.3,12.1-13,12.1
		C143.6,73.1,139.3,69,139.3,61z"/>
	<path class="st0" d="M171.6,72.8V42.6h13.7c6.2,0,9.3,2.7,9.3,8.1c0,3.6-2.4,6.7-7.2,9.1l9.6,13.1h-7.1l-9.2-13.2v-2.6
		c5.4-0.9,8-3,8-6.2c0-2.2-1.3-3.3-3.8-3.3h-7.7v25.3H171.6z"/>
	<path class="st0" d="M199.1,71.6v-5.1c3,1.1,6.4,1.7,10.3,1.7c4.6,0,6.9-1.6,6.9-4.7c0-2.3-1.4-3.4-4.3-3.4h-4.7
		c-6.2,0-9.3-2.8-9.3-8.5c0-6.2,4.4-9.3,13.2-9.3c3.4,0,6.6,0.5,9.6,1.5V49c-3-1.1-6.2-1.7-9.6-1.7c-5.1,0-7.6,1.5-7.6,4.4
		c0,2.3,1.2,3.4,3.7,3.4h4.7c6.6,0,9.9,2.8,9.9,8.5c0,6.3-4.2,9.5-12.5,9.5C205.5,73.1,202.1,72.6,199.1,71.6z"/>
	<path class="st0" d="M247.3,42.6v4.8h-15.1v7.6h14.4v5h-14.5V68h15.5v4.9h-21V42.6H247.3z"/>
	<path class="st1" d="M70,6.1H58.9v35.7L70,52.9V6.1z M58.9,49.7v9.5h9.5L58.9,49.7z"/>
	<path class="st1" d="M70,17.3V6.1H2.2l11.1,11.2H70z"/>
	<path class="st1" d="M11.1,6.1H2.2l8.4,8.5h0.4V6.1z"/>
	<path class="st2" d="M0,11.8l0,13.1l31.6,31.8l6.5-6.6L0,11.8z"/>
	<path class="st2" d="M48.2,38.8l-7.8,7.9l0.5,0.5l1.3-1.4l7.8,7.9L70,73.9L70,60.9L48.2,38.8z"/>
	<path class="st2" d="M31.6,56.7l10.7-10.8l1.3,1.4l6.5-6.6l-7.8-7.9L25.1,50.2L31.6,56.7z"/>
</g>
</svg>
