<svg width="824" height="100" viewBox="0 0 824 100" fill="none" xmlns="http://www.w3.org/2000/svg">
<path fill-rule="evenodd" clip-rule="evenodd" d="M130.174 41.7492L68.2184 0.904782C67.012 -0.301594 64.6424 -0.301594 62.7897 0.904782L41.118 15.3382V9.30632C41.118 6.33346 37.542 3.31753 32.7165 3.31753C27.891 3.31753 24.2288 6.33346 24.2288 9.30632V26.7557L1.43686 41.7492C-0.372707 42.9556 -0.372711 45.3253 0.87675 46.5748C2.12621 47.8242 5.05598 47.7812 6.86555 46.5748L65.8057 7.49676L124.746 46.5748C125.349 47.1349 126.512 47.7812 127.159 47.7812C128.365 47.7812 129.571 47.178 130.174 46.5748C131.984 45.3253 131.984 42.9125 130.174 41.7492ZM0.273564 61.5683C6.90864 74.1922 13.5006 87.4192 20.1357 100C34.5691 88.5825 67.0551 96.424 90.5364 94.5713C105.573 86.1698 120.567 78.3714 135.646 69.9268C138.662 61.5252 135.646 56.7428 124.186 56.1396C113.975 62.1284 103.16 68.1603 92.9491 74.1491C82.1348 72.3395 71.2774 71.1762 60.4631 69.3666C45.4265 48.9013 80.3253 65.1444 89.9332 63.3348C95.922 59.1556 97.1715 54.9332 89.9332 50.1508C73.6902 47.1348 57.4472 43.5157 41.2042 39.9397C27.417 47.1348 14.19 54.3731 0.316642 61.5683H0.273564Z" fill="#D7A23A"/>
</svg>
