<svg width="824" height="100" viewBox="0 0 824 100" fill="none" xmlns="http://www.w3.org/2000/svg">
<path fill-rule="evenodd" clip-rule="evenodd" d="M13.1944 99.053L10.5745 84.9748L29.072 76.6099V99.9684H13.6679L13.226 99.053H13.1944ZM10.101 81.8813L7.03914 66.0354L29.0404 56.3447V73.5164L10.0694 81.8813H10.101ZM6.59722 63.4154L3.97727 47.5695L29.072 36.9634V53.2828L6.59722 63.3838V63.4154ZM3.50379 44.9179L0 27.3359V26.452L0.410357 26.0417L27.3043 10.6376L29.072 9.72222V33.9331L3.50379 44.9179ZM72.6957 34.8169L100 41.0038L99.1162 48.0114L70.0126 62.5631L72.6957 34.8169V34.8169ZM98.6742 51.5152L96.9066 63.4154L68.7184 76.6099L69.6023 65.625L98.6742 51.5152V51.5152ZM96.0543 66.4773L94.2866 78.7879L66.9823 91.1616L68.2765 80.1452L96.0543 66.4773V66.4773ZM93.8447 81.8813L91.2247 99.9684H66.1301L66.5404 94.2235L93.8447 81.9129V81.8813ZM31.6919 0V37.8788L70.9596 33.9015L72.2538 17.2033L31.6919 0V0ZM31.6919 40.5303V50.6629L69.6023 47.1275L70.4861 36.553L31.6919 40.5303V40.5303ZM31.6919 53.3144V63.4154L68.2765 60.7955L69.1604 49.779L31.6919 53.3144V53.3144ZM31.6919 66.0669V100H64.2992L67.8346 63.447L31.6604 66.0669H31.6919Z" fill="#D7A23A"/>
</svg>
